<svg width="272" height="272" viewBox="0 0 272 272" fill="none" xmlns="http://www.w3.org/2000/svg">
<rect x="97" y="1" width="78" height="78" fill="#F24D1D" stroke="black" stroke-width="2"/>
<rect x="97" y="97" width="78" height="78" fill="#1E1E1E" stroke="black" stroke-width="2"/>
<rect x="97" y="193" width="78" height="78" fill="#20A65A" stroke="black" stroke-width="2"/>
<rect x="193" y="1" width="78" height="78" fill="#5452FF" stroke="black" stroke-width="2"/>
<rect x="193" y="97" width="78" height="78" fill="#FFC600" stroke="black" stroke-width="2"/>
<rect x="193" y="193" width="78" height="78" fill="#F24D1D" stroke="black" stroke-width="2"/>
<rect x="1" y="1" width="78" height="78" fill="#5452FF" stroke="black" stroke-width="2"/>
<rect x="1" y="97" width="78" height="78" fill="#FFC600" stroke="black" stroke-width="2"/>
<rect x="1" y="193" width="78" height="78" fill="#F24D1D" stroke="black" stroke-width="2"/>
<path d="M40 16L48.4641 28.3502L62.8254 32.5836L53.6952 44.4498L54.1068 59.4164L40 54.4L25.8932 59.4164L26.3048 44.4498L17.1746 32.5836L31.5359 28.3502L40 16Z" fill="#FFC600"/>
<path d="M136 17C148.15 17 158 26.8497 158 39C158 51.1503 148.15 61 136 61H114V39C114 26.8497 123.85 17 136 17Z" fill="#20A65A" stroke="black" stroke-width="2"/>
<rect x="210" y="17" width="44" height="44" rx="10" fill="#FFC600"/>
<path d="M221 34H242" stroke="black" stroke-width="2"/>
<path d="M221 45H242" stroke="black" stroke-width="2"/>
<path d="M237 29L237 50" stroke="black" stroke-width="2"/>
<path d="M226 29L226 50" stroke="black" stroke-width="2"/>
<path d="M30 117H79V137H21V126C21 121.029 25.0294 117 30 117Z" fill="#F24D1D" stroke="black" stroke-width="2"/>
<path d="M79 137V175H21V137H79Z" fill="#5452FF" stroke="black" stroke-width="2"/>
<path d="M128 116H135V130H128C124.134 130 121 126.866 121 123C121 119.134 124.134 116 128 116Z" stroke="white" stroke-width="2"/>
<path d="M128 130H135V144H128C124.134 144 121 140.866 121 137C121 133.134 124.134 130 128 130Z" stroke="white" stroke-width="2"/>
<path d="M128 145H135V152.889C135 156.264 132.264 159 128.889 159H128C124.134 159 121 155.866 121 152C121 148.134 124.134 145 128 145Z" stroke="white" stroke-width="2"/>
<path d="M142 130C145.866 130 149 133.134 149 137C149 140.866 145.866 144 142 144C138.134 144 135 140.866 135 137C135 133.134 138.134 130 142 130Z" stroke="white" stroke-width="2"/>
<path d="M143 130L136 130L136 116L143 116C146.866 116 150 119.134 150 123C150 126.866 146.866 130 143 130Z" stroke="white" stroke-width="2"/>
<rect x="135.811" y="130.811" width="2.01837" height="2.01837" fill="white"/>
<path d="M213.794 119.794L249.363 135.775L235.273 141.273L229.775 155.363L213.794 119.794Z" fill="#20A65A" stroke="black" stroke-width="2"/>
<mask id="path-26-inside-1_4655_1817" fill="white">
<path d="M40 216C50.6588 216 59.9708 222.428 64.999 231.999C59.9709 241.571 50.6591 247.999 40 247.999C29.3408 247.999 20.0282 241.571 15 231.999C20.0283 222.427 29.3411 216 40 216Z"/>
</mask>
<path d="M40 216C50.6588 216 59.9708 222.428 64.999 231.999C59.9709 241.571 50.6591 247.999 40 247.999C29.3408 247.999 20.0282 241.571 15 231.999C20.0283 222.427 29.3411 216 40 216Z" fill="#20A65A"/>
<path d="M40 216L40 214H40V216ZM64.999 231.999L66.7696 232.929L67.2582 231.999L66.7696 231.069L64.999 231.999ZM40 247.999V249.999H40L40 247.999ZM15 231.999L13.2294 231.069L12.7408 231.999L13.2294 232.929L15 231.999ZM40 216L40 218C49.8087 218 58.4931 223.915 63.2285 232.929L64.999 231.999L66.7696 231.069C61.4485 220.94 51.5089 214 40 214L40 216ZM64.999 231.999L63.2285 231.069C58.4931 240.083 49.8089 245.999 40 245.999L40 247.999L40 249.999C51.5092 249.999 61.4486 243.058 66.7696 232.929L64.999 231.999ZM40 247.999V245.999C30.1909 245.999 21.5059 240.083 16.7706 231.069L15 231.999L13.2294 232.929C18.5504 243.059 28.4907 249.999 40 249.999V247.999ZM15 231.999L16.7706 232.929C21.5059 223.915 30.1911 218 40 218V216V214C28.491 214 18.5506 220.94 13.2294 231.069L15 231.999Z" fill="black" mask="url(#path-26-inside-1_4655_1817)"/>
<circle cx="39.5" cy="232.5" r="7.5" fill="black"/>
<circle cx="136" cy="233" r="21.5" fill="black" stroke="#FFC600" stroke-width="5"/>
<mask id="path-30-inside-2_4655_1817" fill="white">
<path d="M241.629 208C249.637 208 256.129 214.492 256.129 222.5C256.129 226.377 254.607 229.898 252.128 232.5C254.607 235.102 256.129 238.623 256.129 242.5C256.129 250.508 249.637 257 241.629 257C237.719 257 234.172 255.452 231.564 252.937C228.957 255.452 225.409 257 221.5 257C213.492 257 207 250.508 207 242.5C207 238.623 208.522 235.102 211 232.5C208.522 229.898 207 226.377 207 222.5C207 214.492 213.492 208 221.5 208C225.409 208 228.957 209.547 231.564 212.062C234.172 209.547 237.72 208 241.629 208Z"/>
</mask>
<path d="M241.629 208C249.637 208 256.129 214.492 256.129 222.5C256.129 226.377 254.607 229.898 252.128 232.5C254.607 235.102 256.129 238.623 256.129 242.5C256.129 250.508 249.637 257 241.629 257C237.719 257 234.172 255.452 231.564 252.937C228.957 255.452 225.409 257 221.5 257C213.492 257 207 250.508 207 242.5C207 238.623 208.522 235.102 211 232.5C208.522 229.898 207 226.377 207 222.5C207 214.492 213.492 208 221.5 208C225.409 208 228.957 209.547 231.564 212.062C234.172 209.547 237.72 208 241.629 208Z" fill="#FFC600"/>
<path d="M241.629 208V206H241.629L241.629 208ZM252.128 232.5L250.68 231.12L249.365 232.5L250.68 233.88L252.128 232.5ZM241.629 257L241.629 259H241.629V257ZM231.564 252.937L232.953 251.497L231.564 250.158L230.176 251.497L231.564 252.937ZM211 232.5L212.448 233.88L213.762 232.5L212.448 231.12L211 232.5ZM231.564 212.062L230.176 213.502L231.564 214.841L232.953 213.502L231.564 212.062ZM241.629 208V210C248.532 210 254.129 215.596 254.129 222.5H256.129H258.129C258.129 213.387 250.742 206 241.629 206V208ZM256.129 222.5H254.129C254.129 225.843 252.819 228.876 250.68 231.12L252.128 232.5L253.576 233.88C256.395 230.921 258.129 226.911 258.129 222.5H256.129ZM252.128 232.5L250.68 233.88C252.819 236.124 254.129 239.157 254.129 242.5H256.129H258.129C258.129 238.089 256.395 234.079 253.576 231.12L252.128 232.5ZM256.129 242.5H254.129C254.129 249.404 248.532 255 241.629 255V257V259C250.742 259 258.129 251.613 258.129 242.5H256.129ZM241.629 257L241.629 255C238.258 255 235.203 253.668 232.953 251.497L231.564 252.937L230.176 254.376C233.141 257.236 237.181 259 241.629 259L241.629 257ZM231.564 252.937L230.176 251.497C227.926 253.668 224.871 255 221.5 255V257V259C225.948 259 229.988 257.236 232.953 254.376L231.564 252.937ZM221.5 257V255C214.596 255 209 249.404 209 242.5H207H205C205 251.613 212.387 259 221.5 259V257ZM207 242.5H209C209 239.157 210.31 236.124 212.448 233.88L211 232.5L209.552 231.12C206.733 234.079 205 238.089 205 242.5H207ZM211 232.5L212.448 231.12C210.31 228.876 209 225.843 209 222.5H207H205C205 226.911 206.733 230.921 209.552 233.88L211 232.5ZM207 222.5H209C209 215.596 214.596 210 221.5 210V208V206C212.387 206 205 213.387 205 222.5H207ZM221.5 208V210C224.871 210 227.926 211.332 230.176 213.502L231.564 212.062L232.953 210.623C229.987 207.763 225.948 206 221.5 206V208ZM231.564 212.062L232.953 213.502C235.203 211.332 238.258 210 241.629 210L241.629 208L241.629 206C237.181 206 233.141 207.763 230.176 210.623L231.564 212.062Z" fill="black" mask="url(#path-30-inside-2_4655_1817)"/>
</svg>
