<svg width="24" height="24" viewBox="0 0 24 24" fill="none" xmlns="http://www.w3.org/2000/svg">
<g clip-path="url(#clip0_5349_2806)">
<path d="M12 17.333C10.8887 17.333 9.94433 16.9443 9.167 16.167C8.389 15.389 8 14.4443 8 13.333C8 12.2223 8.389 11.278 9.167 10.5C9.94433 9.722 10.8887 9.333 12 9.333C13.1113 9.333 14.0557 9.722 14.833 10.5C15.6103 11.278 15.9993 12.2223 16 13.333C16.0007 14.4437 15.6117 15.3883 14.833 16.167C14.0557 16.9443 13.1113 17.333 12 17.333ZM20 22.667C19.2667 22.667 18.639 22.4057 18.117 21.883C17.5943 21.361 17.333 20.7333 17.333 20C17.333 19.2667 17.5943 18.639 18.117 18.117C18.6397 17.595 19.2673 17.3337 20 17.333C20.7327 17.3323 21.3603 17.5937 21.883 18.117C22.4057 18.639 22.667 19.2667 22.667 20C22.667 20.7333 22.4057 21.361 21.883 21.883C21.3603 22.405 20.7327 22.6663 20 22.667ZM5.333 24C3.86633 24 2.611 23.4777 1.567 22.433C0.522333 21.389 0 20.1337 0 18.667V16H2.667V18.667C2.667 19.4003 2.928 20.028 3.45 20.55C3.972 21.072 4.59967 21.333 5.333 21.333H12V24H5.333ZM21.333 13.333V8C21.333 7.26667 21.072 6.639 20.55 6.117C20.028 5.59433 19.4003 5.333 18.667 5.333H5.333C4.59967 5.333 3.972 5.59433 3.45 6.117C2.928 6.639 2.667 7.26667 2.667 8V12H0V8C0 6.53333 0.522333 5.27767 1.567 4.233C2.61167 3.18833 3.867 2.66633 5.333 2.667H8L9.333 0H14.667L16 2.667H18.667C20.1337 2.667 21.389 3.189 22.433 4.233C23.4777 5.27767 24 6.53333 24 8V13.333H21.333Z" fill="black"/>
</g>
<defs>
<clipPath id="clip0_5349_2806">
<rect width="24" height="24" fill="white"/>
</clipPath>
</defs>
</svg>
