<svg width="91" height="134" viewBox="0 0 91 134" fill="none" xmlns="http://www.w3.org/2000/svg">
<path d="M24 2.5H45.5V45.5H24C12.1259 45.5 2.5 35.8741 2.5 24C2.5 12.1259 12.1259 2.5 24 2.5Z" stroke="white" stroke-width="5"/>
<path d="M24 45.5H45.5V88.5H24C12.1259 88.5 2.5 78.8741 2.5 67C2.5 55.1259 12.1259 45.5 24 45.5Z" stroke="white" stroke-width="5"/>
<path d="M24 88.5H45.5V112.667C45.4998 123.068 37.0681 131.5 26.667 131.5H24C12.1259 131.5 2.5 121.874 2.5 110C2.5 98.1259 12.1259 88.5 24 88.5Z" stroke="white" stroke-width="5"/>
<path d="M67 45.5C78.8741 45.5 88.5 55.1259 88.5 67C88.5 78.8741 78.8741 88.5 67 88.5C55.1259 88.5 45.5 78.8741 45.5 67C45.5 55.1259 55.1259 45.5 67 45.5Z" stroke="white" stroke-width="5"/>
<path d="M67 45.5L45.5 45.5L45.5 2.5L67 2.5C78.8741 2.5 88.5 12.1259 88.5 24C88.5 35.8741 78.8741 45.5 67 45.5Z" stroke="white" stroke-width="5"/>
<rect x="47" y="47" width="6" height="6" fill="white"/>
</svg>
